LO PROMETIDO ES DEUDA

TAFURTH629 LES TRAE LA SAGA COMPLETA DE X-MEN EN ESPAÑOL LATINO DUAL
1,2,3 Y WOLVERINE LA 5 YA LA SUBI EN OTRO TORRENT:

thepiratebay.­se/­torrent/­8176944/­X-­Men_First_Class_­2011_1080p_x264_­Espa_amp_ntilde_­ol_latino_By_taf­ur

	

X-Men (2000)

----------------------------------------------------------------------------------------------------------------------------------------------------------------------
 104 min  -  Action | Adventure | Sci-Fi  -  14 July 2000 (USA)
7.4 Your rating:   -/10   Ratings: 7.4/10 from 235,312 users   Metascore: 64/100 
Reviews: 1,341 user | 252 critic | 33 from Metacritic.com
Two mutants come to a private academy for their kind whose resident superhero team must oppose a terrorist organization with similar powers.

Director: Bryan Singer
Writers: Tom DeSanto (story), Bryan Singer (story), 1 more credit »
Stars: Patrick Stewart, Hugh Jackman, Ian McKellen | See full cast and crew


Complete name                    : G:XMEN_COLLECTION_1,2,3,4_BDRip_1080p_Espa?ol latino-engX-MEN 1_BDRip_1080p_espa?ol latino_eng_By Tafurth629.mkv
Format                           : Matroska
File size                        : 1.62 GiB
Duration                         : 1h 44mn
Overall bit rate                 : 2 220 Kbps
Encoded date                     : UTC 2010-02-22 21:41:31
Writing application              : mkvmerge v5.9.0 ('On The Loose') built on Dec  9 2012 15:37:01
Writing library                  : libebml v1.3.0 + libmatroska v1.4.0


----------------------------------------------------------------------------------
Video
ID                               : 1
Format                           : AVC
Format/Info                      : Advanced Video Codec
Format profile                   : High@L4.0
Format settings, CABAC           : Yes
Format settings, ReFrames        : 5 frames
Codec ID                         : V_MPEG4/ISO/AVC
Duration                         : 1h 44mn
Bit rate                         : 1 974 Kbps
Width                            : 1 920 pixels
Height                           : 800 pixels
Display aspect ratio             : 2.40:1
Frame rate                       : 23.976 fps
Color space                      : YUV
Chroma subsampling               : 4:2:0
Bit depth                        : 8 bits
Scan type                        : Progressive
Bits/(Pixel*Frame)               : 0.054
Stream size                      : 1.44 GiB (89%)
Writing library                  : FASM Quality Enhancer Bitrate Squeezer 2.1 (c)2010 Fachman
Color primaries                  : BT.709-5, BT.1361, IEC 61966-2-4, SMPTE RP177
Transfer characteristics         : BT.709-5, BT.1361
Matrix coefficients              : BT.709-5, BT.1361, IEC 61966-2-4 709, SMPTE RP177

-----------------------------------------------------------------------------------
Audio #1
ID                               : 2
Format                           : MPEG Audio
Format version                   : Version 1
Format profile                   : Layer 3
Codec ID                         : A_MPEG/L3
Codec ID/Hint                    : MP3
Duration                         : 1h 44mn
Bit rate mode                    : Constant
Bit rate                         : 128 Kbps
Channel(s)                       : 2 channels
Sampling rate                    : 44.1 KHz
Compression mode                 : Lossy
Stream size                      : 95.5 MiB (6%)
Writing library                  : LAME3.98r
Encoding settings                : -m s -V 4 -q 3 -lowpass 17 -b 128
Language                         : Spanish

Audio #2
ID                               : 3
Format                           : MPEG Audio
Format version                   : Version 1
Format profile                   : Layer 3
Codec ID                         : A_MPEG/L3
Codec ID/Hint                    : MP3
Duration                         : 1h 44mn
Bit rate mode                    : Variable
Bit rate                         : 73.5 Kbps
Minimum bit rate                 : 32.0 Kbps
Channel(s)                       : 2 channels
Sampling rate                    : 32.0 KHz
Compression mode                 : Lossy
Stream size                      : 54.8 MiB (3%)
Writing library                  : LAME3.98r
Encoding settings                : -m s -V 9 -q 0 -lowpass 9.5 --vbr-new -b 32
Language                         : English

----------------------------------------------------------------------------------------------------------------------------------------------------------------------

X-MEN 2 (2003)

----------------------------------------------------------------------------------------------------------------------------------------------------------------------

Complete name                    : G:XMEN_COLLECTION_1,2,3,4_BDRip_1080p_Espa?ol latino-engX-MEN 2_BDRip_1080p_espa?ol latino_eng_By Tafurth629.mkv
Format                           : Matroska
File size                        : 2.16 GiB
Duration                         : 2h 13mn
Overall bit rate                 : 2 311 Kbps
Encoded date                     : UTC 2010-02-22 21:41:31
Writing application              : mkvmerge v5.9.0 ('On The Loose') built on Dec  9 2012 15:37:01
Writing library                  : libebml v1.3.0 + libmatroska v1.4.0




----------------------------------------------------------------------------------------------------------------------------------------------------------------------


X-MEN 3 (2006)

----------------------------------------------------------------------------------------------------------------------------------------------------------------------


Complete name                    : G:XMEN_COLLECTION_1,2,3,4_BDRip_1080p_Espa?ol latino-engX-MEN 3_BDRip_1080p_espa?ol latino_eng_By Tafurth629.mkv
Format                           : Matroska
File size                        : 2.10 GiB
Duration                         : 1h 44mn
Overall bit rate                 : 2 885 Kbps
Encoded date                     : UTC 2010-02-22 21:41:31
Writing application              : mkvmerge v5.9.0 ('On The Loose') built on Dec  9 2012 15:37:01
Writing library                  : libebml v1.3.0 + libmatroska v1.4.0


----------------------------------------------------------------------------------------------------------------------------------------------------------------------


X-MEN ORIGINGS: WOLVERINE (2009)

----------------------------------------------------------------------------------------------------------------------------------------------------------------------


Complete name                    : G:XMEN_COLLECTION_1,2,3,4_BDRip_1080p_Espa?ol latino-engX-MEN WOLVERINE_BDRip_1080p_espa?ol latino_eng_By Tafurth629.mkv
Format                           : Matroska
File size                        : 1.68 GiB
Duration                         : 1h 47mn
Overall bit rate                 : 2 240 Kbps
Encoded date                     : UTC 2010-02-22 21:41:31
Writing application              : mkvmerge v5.9.0 ('On The Loose') built on Dec  9 2012 15:37:01
Writing library                  : libebml v1.3.0 + libmatroska v1.4.0
